HIERARCHY
ROOT pelvis
{
  OFFSET 0 100 0
  CHANNELS 6 Xposition Yposition Zposition Zrotation Xrotation Yrotation
  JOINT pelvis_right_femur
  {
    OFFSET -10.78128 -3.44521 -0.5502486
    CHANNELS 3 Zrotation Xrotation Yrotation
    JOINT right_femur_tibia
    {
      OFFSET -0.8047443 -44.0398 -0.1307829
      CHANNELS 3 Zrotation Xrotation Yrotation
      JOINT right_tibia_foot
      {
        OFFSET 3.006224 -47.83518 -5
        CHANNELS 3 Zrotation Xrotation Yrotation
        End Site
        {
          OFFSET 0 -5 15
        }
      }
    }
  }
  JOINT pelvis_left_femur
  {
    OFFSET 10.78128 -3.44521 -0.5502486
    CHANNELS 3 Zrotation Xrotation Yrotation
    JOINT left_femur_tibia
    {
      OFFSET 0.8047443 -44.0398 -0.1307829
      CHANNELS 3 Zrotation Xrotation Yrotation
      JOINT left_tibia_foot
      {
        OFFSET -4.370144 -48.10324 -4.275266
        CHANNELS 3 Zrotation Xrotation Yrotation
        End Site
        {
          OFFSET 0 -5 15
        }
      }
    }
  }
  JOINT pelvis_spine1
  {
    OFFSET 0 6.468898 -3.129235
    CHANNELS 3 Zrotation Xrotation Yrotation
    JOINT spine1
    {
      OFFSET 0 23.15396 4.99043
      CHANNELS 3 Zrotation Xrotation Yrotation
      JOINT spine2
      {
        OFFSET 0 20.79997 -5.064912
        CHANNELS 3 Zrotation Xrotation Yrotation
        JOINT neck
        {
          OFFSET 0 14.38658 9.616178
          CHANNELS 3 Zrotation Xrotation Yrotation
          End Site
          {
            OFFSET 0 20 0
          }
        }
      }
      JOINT right_manubrium
      {
        OFFSET -5.722621 16.35077 3.967754
        CHANNELS 3 Zrotation Xrotation Yrotation
        JOINT right_clavicle
        {
          OFFSET -13.16364 1.694482 -4.693211
          CHANNELS 3 Zrotation Xrotation Yrotation
          JOINT right_humerus
          {
            OFFSET -28.5034 -0.3100689 -2.792744
            CHANNELS 3 Zrotation Xrotation Yrotation
            JOINT right_radius
            {
              OFFSET -25.15693 0.02248979 -1.271978
              CHANNELS 3 Zrotation Xrotation Yrotation
              End Site
              {
                OFFSET -15 0 0
              }
            }
          }
        }
      }
      JOINT left_manubrium
      {
        OFFSET 5.722621 16.35077 3.967754
        CHANNELS 3 Zrotation Xrotation Yrotation
        JOINT left_clavicle
        {
          OFFSET 13.16364 1.694482 -4.693211
          CHANNELS 3 Zrotation Xrotation Yrotation
          JOINT left_humerus
          {
            OFFSET 29.39168 -1.063119 -2.237045
            CHANNELS 3 Zrotation Xrotation Yrotation
            JOINT left_radius
            {
              OFFSET 24.59957 -0.9528479 0.9047498
              CHANNELS 3 Zrotation Xrotation Yrotation
              End Site
              {
                OFFSET 15 -0 -0
              }
            }
          }
        }
      }
    }
  }
}
MOTION
Frames: 9
Frame Time: 0.0416666666667
0 103.5113 0 0.4350551 0.6060279 0.533725 3.146923 -20.13324 9.255149 -0 41.66241 -0 -5.208181 -14.18864 -4.87513 -6.603789 9.287313 -22.8998 -0 2.013704 -0 1.184271 -20.58428 21.65983 -4.126208 -1.205012 3.422167 3.038976 7.926952 -8.408952 0.2238718 21.96692 8.492873 3.845307 -24.94919 8.93564 9.231701 -18.81708 12.01943 84.23842 41.27849 -19.45945 -0 0 15.74347 -8.235188 10.58122 7.74187 3.672316 -18.24508 -1.951481 -97.5684 38.33715 27.16527 0 0 -19.32085 -7.737253 13.34667 25.58425
0.3450889 103.6174 1.074821 0.5260802 0.1963132 1.124375 2.84949 -19.60912 9.095386 -0 43.06242 -0 -5.186201 -13.54418 -5.060498 -6.655668 9.17496 -22.6276 -0 2.534112 -0 0.8261799 -20.44754 21.36662 -4.173376 -1.115358 3.372012 2.939601 8.064356 -8.384637 0.2012658 22.05696 8.473453 3.816388 -24.67537 8.834829 9.238617 -18.77381 12.03731 84.40597 41.08663 -19.48225 -0 0 15.61554 -8.732604 10.76406 7.999068 3.491453 -18.23236 -2.171944 -97.49983 38.54127 27.19417 0 0 -19.19378 -8.249423 13.06516 26.26627
0.6429195 103.4488 2.60651 0.4216632 0.3395193 1.698892 2.996638 -21.88808 7.932835 -0 38.39679 -0 -5.150262 -12.36012 -4.955855 -6.323315 10.7065 -21.47168 -0 2.154615 -0 0.5779005 -21.06649 20.49086 -3.940728 -1.081533 3.11361 2.93905 8.043283 -8.551263 0.2655134 21.94075 8.436247 3.772967 -24.46816 8.828976 8.362455 -18.40673 11.80437 85.4114 39.85373 -20.40875 -0 0 14.64679 -9.603265 10.77733 8.014031 4.10571 -19.00882 -2.37895 -95.13903 37.21674 24.19703 0 0 -20.95316 -6.681946 13.21893 23.97901
0.9034378 103.0285 4.543511 0.2430003 0.7623083 2.25523 3.26785 -24.20134 7.106667 -0 33.77355 -0 -4.996952 -11.73185 -4.897379 -6.000565 12.09714 -20.56898 -0 1.702325 -0 0.1772909 -21.66438 19.59212 -3.698445 -1.058254 2.905256 3.008188 7.883698 -8.753441 0.3081437 21.74249 8.444561 3.734135 -24.44712 8.876074 7.697216 -18.05205 11.58935 86.15491 39.0569 -21.25516 -0 0 13.90836 -10.10488 10.85555 7.967657 4.63646 -19.6141 -2.420519 -93.37505 36.24897 21.88319 0 0 -22.64614 -5.546053 13.18655 22.34589
1.133806 102.384 6.876632 0.0003128275 1.338694 2.788821 3.63315 -26.46445 6.456993 -0 29.20141 -0 -4.842569 -11.30647 -4.820655 -5.685504 13.38922 -19.80067 -0 1.491918 -0 -0.3055095 -22.15753 18.66964 -3.42703 -1.052579 2.727511 3.1106 7.661459 -8.959781 0.3445751 21.49989 8.473781 3.70857 -24.55295 8.951632 7.131582 -17.69827 11.38755 86.77435 38.47188 -22.0492 -0 0 13.25961 -10.39323 10.93899 7.870495 5.124244 -20.12557 -2.365394 -91.93851 35.38126 19.94999 0 0 -24.22711 -4.532187 13.10201 20.92575
1.342846 101.5623 9.602942 -0.3127982 2.05809 3.298476 4.103728 -28.5888 6.006658 -0 24.86943 -0 -4.693323 -11.03086 -4.730209 -5.376347 14.54054 -19.16426 -0 1.666488 -0 -0.9183225 -22.49056 17.68913 -3.121683 -1.061435 2.582187 3.240356 7.379778 -9.163834 0.3727366 21.2128 8.526065 3.698706 -24.78835 9.05225 6.682995 -17.3418 11.201 87.27276 38.11989 -22.78651 -0 0 12.70289 -10.47699 11.04084 7.738089 5.540448 -20.51775 -2.218071 -90.83948 34.67313 18.44691 0 0 -25.63578 -3.69965 12.95258 19.80846
1.540775 100.6227 12.73533 -0.6950984 2.877733 3.785485 4.676513 -30.47883 5.735407 -0 20.92699 -0 -4.57641 -10.78916 -4.623468 -5.072145 15.52427 -18.62369 -0 2.423326 -0 -1.693319 -22.59772 16.61879 -2.774714 -1.080443 2.465788 3.384423 7.058155 -9.354126 0.3942242 20.89126 8.596453 3.706852 -25.13507 9.167765 6.341933 -16.9742 11.03069 87.68018 37.96718 -23.46614 -0 0 12.20635 -10.40435 11.16413 7.589009 5.866896 -20.78799 -2.000484 -90.04032 34.11547 17.356 0 0 -26.81985 -3.042989 12.7442 18.98955
1.739546 99.6384 16.30252 -1.141094 3.745185 4.251672 5.3414 -32.02728 5.61867 -0 17.52579 -0 -4.524054 -10.47127 -4.50325 -4.772807 16.31196 -18.14133 -0 3.982094 -0 -2.662322 -22.40645 15.43385 -2.37943 -1.102639 2.373679 3.529689 6.717874 -9.518411 0.4109928 20.55007 8.677697 3.734453 -25.56798 9.285337 6.100606 -16.58447 10.87865 88.02549 37.97907 -24.08433 -0 0 11.73233 -10.2245 11.31225 7.44208 6.082187 -20.93451 -1.737515 -89.5125 33.70044 16.6622 0 0 -27.72488 -2.564416 12.48119 18.47391
1.95246 98.69554 20.34903 -1.633352 4.573301 4.695395 6.066649 -33.09986 5.605243 -0 14.82361 -0 -4.585552 -9.946162 -4.375381 -4.481441 16.87483 -17.66412 -0 6.615598 -0 -3.839972 -21.83188 14.12923 -1.931397 -1.117416 2.298468 3.658526 6.394048 -9.640191 0.4269809 20.21722 8.755397 3.781082 -26.04015 9.384159 5.941486 -16.1592 10.74944 88.34865 38.09118 -24.63431 -0 0 11.22212 -10.00789 11.48349 7.317601 6.165571 -20.96764 -1.467964 -89.21552 33.39128 16.32215 0 0 -28.29242 -2.244511 12.17721 18.23128
